<mxfile host="Electron" modified="2024-08-13T14:26:07.044Z" agent="Mozilla/5.0 (Windows NT 10.0; Win64; x64) AppleWebKit/537.36 (KHTML, like Gecko) draw.io/24.0.4 Chrome/120.0.6099.109 Electron/28.1.0 Safari/537.36" etag="dOnhoxT8QcoCmi5YBNqX" version="24.0.4" type="device" pages="2">
  <diagram name="DAO" id="CJ34W1FAELsHuCcfRuL7">
    <mxGraphModel dx="724" dy="434" grid="1" gridSize="10" guides="1" tooltips="1" connect="1" arrows="1" fold="1" page="1" pageScale="1" pageWidth="850" pageHeight="1100" math="0" shadow="0">
      <root>
        <mxCell id="0" />
        <mxCell id="1" parent="0" />
        <mxCell id="VJdxwFdZJclh0eQar4s2-1" value="DAO (Data Access Objects)" style="text;html=1;align=left;verticalAlign=middle;whiteSpace=wrap;rounded=0;spacingLeft=15;" vertex="1" parent="1">
          <mxGeometry x="330" y="200" width="180" height="30" as="geometry" />
        </mxCell>
        <mxCell id="VJdxwFdZJclh0eQar4s2-3" value="MySQL" style="shape=cylinder3;whiteSpace=wrap;html=1;boundedLbl=1;backgroundOutline=1;size=15;" vertex="1" parent="1">
          <mxGeometry x="80" y="320" width="60" height="80" as="geometry" />
        </mxCell>
        <mxCell id="VJdxwFdZJclh0eQar4s2-4" value="UserDAO" style="shape=umlActor;verticalLabelPosition=bottom;verticalAlign=top;html=1;outlineConnect=0;" vertex="1" parent="1">
          <mxGeometry x="340" y="330" width="30" height="60" as="geometry" />
        </mxCell>
        <mxCell id="VJdxwFdZJclh0eQar4s2-5" value="Tương tác" style="endArrow=classic;html=1;rounded=0;" edge="1" parent="1" source="VJdxwFdZJclh0eQar4s2-4" target="VJdxwFdZJclh0eQar4s2-3">
          <mxGeometry width="50" height="50" relative="1" as="geometry">
            <mxPoint x="290" y="350" as="sourcePoint" />
            <mxPoint x="340" y="300" as="targetPoint" />
          </mxGeometry>
        </mxCell>
        <mxCell id="VJdxwFdZJclh0eQar4s2-6" value="Chương trình" style="shape=umlActor;verticalLabelPosition=bottom;verticalAlign=top;html=1;outlineConnect=0;" vertex="1" parent="1">
          <mxGeometry x="340" y="560" width="30" height="60" as="geometry" />
        </mxCell>
        <mxCell id="VJdxwFdZJclh0eQar4s2-7" value="Ra lệnh" style="endArrow=classic;html=1;rounded=0;" edge="1" parent="1" source="VJdxwFdZJclh0eQar4s2-6" target="VJdxwFdZJclh0eQar4s2-4">
          <mxGeometry width="50" height="50" relative="1" as="geometry">
            <mxPoint x="330" y="470" as="sourcePoint" />
            <mxPoint x="380" y="420" as="targetPoint" />
          </mxGeometry>
        </mxCell>
        <mxCell id="VJdxwFdZJclh0eQar4s2-8" value="User" style="shape=umlActor;verticalLabelPosition=bottom;verticalAlign=top;html=1;outlineConnect=0;" vertex="1" parent="1">
          <mxGeometry x="590" y="330" width="30" height="60" as="geometry" />
        </mxCell>
        <mxCell id="VJdxwFdZJclh0eQar4s2-9" value="Tạo ra hoặc sử dụng&lt;div&gt;để tương tác CSDL&lt;/div&gt;" style="endArrow=classic;html=1;rounded=0;" edge="1" parent="1" source="VJdxwFdZJclh0eQar4s2-4" target="VJdxwFdZJclh0eQar4s2-8">
          <mxGeometry width="50" height="50" relative="1" as="geometry">
            <mxPoint x="510" y="380" as="sourcePoint" />
            <mxPoint x="560" y="330" as="targetPoint" />
          </mxGeometry>
        </mxCell>
        <mxCell id="VJdxwFdZJclh0eQar4s2-10" value="Sử dụng" style="endArrow=classic;html=1;rounded=0;" edge="1" parent="1" source="VJdxwFdZJclh0eQar4s2-6" target="VJdxwFdZJclh0eQar4s2-8">
          <mxGeometry width="50" height="50" relative="1" as="geometry">
            <mxPoint x="330" y="470" as="sourcePoint" />
            <mxPoint x="380" y="420" as="targetPoint" />
          </mxGeometry>
        </mxCell>
      </root>
    </mxGraphModel>
  </diagram>
  <diagram id="lFsaoDeOptTey7rWnTvZ" name="Converter">
    <mxGraphModel dx="875" dy="524" grid="1" gridSize="10" guides="1" tooltips="1" connect="1" arrows="1" fold="1" page="1" pageScale="1" pageWidth="850" pageHeight="1100" math="0" shadow="0">
      <root>
        <mxCell id="0" />
        <mxCell id="1" parent="0" />
        <mxCell id="Q3E04BOzOVKK0k6jSsAP-1" value="UserConverter" style="shape=umlActor;verticalLabelPosition=bottom;verticalAlign=top;html=1;outlineConnect=0;" vertex="1" parent="1">
          <mxGeometry x="280" y="320" width="30" height="60" as="geometry" />
        </mxCell>
        <mxCell id="Q3E04BOzOVKK0k6jSsAP-2" value="Bảng dữ liệu" style="rounded=0;whiteSpace=wrap;html=1;" vertex="1" parent="1">
          <mxGeometry x="225" y="20" width="140" height="160" as="geometry" />
        </mxCell>
        <mxCell id="Q3E04BOzOVKK0k6jSsAP-3" value="1. Nhận được" style="endArrow=classic;html=1;rounded=0;" edge="1" parent="1" source="Q3E04BOzOVKK0k6jSsAP-1" target="Q3E04BOzOVKK0k6jSsAP-2">
          <mxGeometry width="50" height="50" relative="1" as="geometry">
            <mxPoint x="380" y="220" as="sourcePoint" />
            <mxPoint x="430" y="170" as="targetPoint" />
          </mxGeometry>
        </mxCell>
        <mxCell id="Q3E04BOzOVKK0k6jSsAP-4" value="User" style="shape=umlActor;verticalLabelPosition=bottom;verticalAlign=top;html=1;outlineConnect=0;" vertex="1" parent="1">
          <mxGeometry x="600" y="320" width="30" height="60" as="geometry" />
        </mxCell>
        <mxCell id="Q3E04BOzOVKK0k6jSsAP-5" value="2. Chuyển đổi sang" style="endArrow=classic;html=1;rounded=0;" edge="1" parent="1" source="Q3E04BOzOVKK0k6jSsAP-1" target="Q3E04BOzOVKK0k6jSsAP-4">
          <mxGeometry width="50" height="50" relative="1" as="geometry">
            <mxPoint x="380" y="220" as="sourcePoint" />
            <mxPoint x="430" y="170" as="targetPoint" />
          </mxGeometry>
        </mxCell>
      </root>
    </mxGraphModel>
  </diagram>
</mxfile>
